TITLE ""
FILE "Disc2Track32.mp3" MP3
  TRACK 01 AUDIO
    TITLE "Disc2Track32_01"
    INDEX 01 00:00:00
  TRACK 02 AUDIO
    TITLE "Disc2Track32_02"
    INDEX 01 00:01:29
  TRACK 03 AUDIO
    TITLE "Disc2Track32_03"
    INDEX 01 00:03:34
  TRACK 04 AUDIO
    TITLE "Disc2Track32_04"
    INDEX 01 00:04:73
  TRACK 05 AUDIO
    TITLE "Disc2Track32_05"
    INDEX 01 00:08:35
  TRACK 06 AUDIO
    TITLE "Disc2Track32_06"
    INDEX 01 00:08:67
  TRACK 07 AUDIO
    TITLE "Disc2Track32_07"
    INDEX 01 00:10:71
  TRACK 08 AUDIO
    TITLE "Disc2Track32_08"
    INDEX 01 00:14:03
  TRACK 09 AUDIO
    TITLE "Disc2Track32_09"
    INDEX 01 00:16:03
  TRACK 10 AUDIO
    TITLE "Disc2Track32_10"
    INDEX 01 00:20:29
  TRACK 11 AUDIO
    TITLE "Disc2Track32_11"
    INDEX 01 00:20:58
  TRACK 12 AUDIO
    TITLE "Disc2Track32_12"
    INDEX 01 00:22:26
  TRACK 13 AUDIO
    TITLE "Disc2Track32_13"
    INDEX 01 00:24:52
  TRACK 14 AUDIO
    TITLE "Disc2Track32_14"
    INDEX 01 00:26:19
  TRACK 15 AUDIO
    TITLE "Disc2Track32_15"
    INDEX 01 00:29:67
  TRACK 16 AUDIO
    TITLE "Disc2Track32_16"
    INDEX 01 00:30:21
  TRACK 17 AUDIO
    TITLE "Disc2Track32_17"
    INDEX 01 00:31:54
  TRACK 18 AUDIO
    TITLE "Disc2Track32_18"
    INDEX 01 00:35:65
  TRACK 19 AUDIO
    TITLE "Disc2Track32_19"
    INDEX 01 00:37:23
  TRACK 20 AUDIO
    TITLE "Disc2Track32_20"
    INDEX 01 00:40:20
  TRACK 21 AUDIO
    TITLE "Disc2Track32_21"
    INDEX 01 00:40:51
  TRACK 22 AUDIO
    TITLE "Disc2Track32_22"
    INDEX 01 00:42:11
  TRACK 23 AUDIO
    TITLE "Disc2Track32_23"
    INDEX 01 00:43:16
  TRACK 24 AUDIO
    TITLE "Disc2Track32_24"
    INDEX 01 00:44:53
  TRACK 25 AUDIO
    TITLE "Disc2Track32_25"
    INDEX 01 00:45:13
  TRACK 26 AUDIO
    TITLE "Disc2Track32_26"
    INDEX 01 00:46:46
  TRACK 27 AUDIO
    TITLE "Disc2Track32_27"
    INDEX 01 00:48:05
  TRACK 28 AUDIO
    TITLE "Disc2Track32_28"
    INDEX 01 00:49:36
  TRACK 29 AUDIO
    TITLE "Disc2Track32_29"
    INDEX 01 00:54:04
  TRACK 30 AUDIO
    TITLE "Disc2Track32_30"
    INDEX 01 00:54:33
  TRACK 31 AUDIO
    TITLE "Disc2Track32_31"
    INDEX 01 00:55:66
  TRACK 32 AUDIO
    TITLE "Disc2Track32_32"
    INDEX 01 00:59:13
  TRACK 33 AUDIO
    TITLE "Disc2Track32_33"
    INDEX 01 01:00:44
  TRACK 34 AUDIO
    TITLE "Disc2Track32_34"
    INDEX 01 01:05:41
  TRACK 35 AUDIO
    TITLE "Disc2Track32_35"
    INDEX 01 01:05:74
  TRACK 36 AUDIO
    TITLE "Disc2Track32_36"
    INDEX 01 01:07:38
  TRACK 37 AUDIO
    TITLE "Disc2Track32_37"
    INDEX 01 01:10:62
  TRACK 38 AUDIO
    TITLE "Disc2Track32_38"
    INDEX 01 01:12:24
  TRACK 39 AUDIO
    TITLE "Disc2Track32_39"
    INDEX 01 01:17:29
  TRACK 40 AUDIO
    TITLE "Disc2Track32_40"
    INDEX 01 01:17:60
  TRACK 41 AUDIO
    TITLE "Disc2Track32_41"
    INDEX 01 01:19:08
  TRACK 42 AUDIO
    TITLE "Disc2Track32_42"
    INDEX 01 01:20:19
  TRACK 43 AUDIO
    TITLE "Disc2Track32_43"
    INDEX 01 01:21:40
  TRACK 44 AUDIO
    TITLE "Disc2Track32_44"
    INDEX 01 01:25:16
  TRACK 45 AUDIO
    TITLE "Disc2Track32_45"
    INDEX 01 01:25:48
  TRACK 46 AUDIO
    TITLE "Disc2Track32_46"
    INDEX 01 01:27:05
  TRACK 47 AUDIO
    TITLE "Disc2Track32_47"
    INDEX 01 01:28:11
  TRACK 48 AUDIO
    TITLE "Disc2Track32_48"
    INDEX 01 01:29:45
  TRACK 49 AUDIO
    TITLE "Disc2Track32_49"
    INDEX 01 01:30:00
  TRACK 50 AUDIO
    TITLE "Disc2Track32_50"
    INDEX 01 01:31:13
  TRACK 51 AUDIO
    TITLE "Disc2Track32_51"
    INDEX 01 01:33:20
  TRACK 52 AUDIO
    TITLE "Disc2Track32_52"
    INDEX 01 01:34:29
  TRACK 53 AUDIO
    TITLE "Disc2Track32_53"
    INDEX 01 01:36:61
  TRACK 54 AUDIO
    TITLE "Disc2Track32_54"
    INDEX 01 01:37:18
  TRACK 55 AUDIO
    TITLE "Disc2Track32_55"
    INDEX 01 01:38:43
  TRACK 56 AUDIO
    TITLE "Disc2Track32_56"
    INDEX 01 01:41:33
  TRACK 57 AUDIO
    TITLE "Disc2Track32_57"
    INDEX 01 01:42:56
